<svg width="14" height="12" viewBox="0 0 14 12" fill="none" xmlns="http://www.w3.org/2000/svg">
<path d="M0.75 6L0.21967 5.46967C-0.0732231 5.76256 -0.0732231 6.23744 0.21967 6.53033L0.75 6ZM13.25 6.75C13.6642 6.75 14 6.41422 14 6C14 5.58579 13.6642 5.25 13.25 5.25L13.25 6.75ZM6.28033 1.53033C6.57322 1.23744 6.57322 0.762563 6.28033 0.46967C5.98744 0.176777 5.51256 0.176777 5.21967 0.46967L6.28033 1.53033ZM5.21967 11.5303C5.51256 11.8232 5.98744 11.8232 6.28033 11.5303C6.57322 11.2374 6.57322 10.7626 6.28033 10.4697L5.21967 11.5303ZM0.75 6.75L13.25 6.75L13.25 5.25L0.75 5.25V6.75ZM5.21967 0.46967L0.21967 5.46967L1.28033 6.53033L6.28033 1.53033L5.21967 0.46967ZM0.21967 6.53033L5.21967 11.5303L6.28033 10.4697L1.28033 5.46967L0.21967 6.53033Z" fill="#E7E7E7"/>
</svg>
