<svg width="14" height="12" viewBox="0 0 14 12" fill="none" xmlns="http://www.w3.org/2000/svg">
<path d="M13.25 6L13.7803 6.53033C14.0732 6.23744 14.0732 5.76256 13.7803 5.46967L13.25 6ZM0.75 5.25C0.335786 5.25 -1.77058e-07 5.58578 -2.18557e-07 6C-2.60056e-07 6.41421 0.335786 6.75 0.75 6.75L0.75 5.25ZM7.71967 10.4697C7.42678 10.7626 7.42678 11.2374 7.71967 11.5303C8.01256 11.8232 8.48744 11.8232 8.78033 11.5303L7.71967 10.4697ZM8.78033 0.46967C8.48744 0.176777 8.01256 0.176777 7.71967 0.46967C7.42678 0.762562 7.42678 1.23744 7.71967 1.53033L8.78033 0.46967ZM13.25 5.25L0.75 5.25L0.75 6.75L13.25 6.75L13.25 5.25ZM8.78033 11.5303L13.7803 6.53033L12.7197 5.46967L7.71967 10.4697L8.78033 11.5303ZM13.7803 5.46967L8.78033 0.46967L7.71967 1.53033L12.7197 6.53033L13.7803 5.46967Z" fill="#E7E7E7"/>
</svg>
